<?xml version="1.0" encoding="utf-8"?>
<!-- Generator: Adobe Illustrator 23.0.6, SVG Export Plug-In . SVG Version: 6.00 Build 0)  -->
<svg version="1.1" id="Layer_1" xmlns="http://www.w3.org/2000/svg" xmlns:xlink="http://www.w3.org/1999/xlink" x="0px" y="0px"
	 viewBox="0 0 512 512" enable-background="new 0 0 512 512" xml:space="preserve">
<g>
	<g>
		<g>
			<path d="M504.7,159L335.5,50.1c-3.4-2.2-7.9-1.2-10.1,2.2c-2.2,3.4-1.2,7.9,2.2,10.1l166.8,107.3h-38.9L265.6,47.5
				c-6.5-4.2-14.8-4.2-21.3,0L54.5,169.6H15.6L255,15.6l33.9,21.8c3.4,2.2,7.9,1.2,10.1-2.2c2.2-3.4,1.2-7.9-2.2-10.1L262.9,3.4
				c-4.8-3.1-10.9-3.1-15.7,0L5.3,159c-5.1,3.3-7.4,9.5-5.7,15.4c1.7,5.9,7,9.8,13.1,9.8h36.7v25.1v22c0,5.8,4.1,10.6,9.6,11.8v12.8
				c0,6.6,5.4,12,12,12h1v89.1c0,4,3.3,7.3,7.3,7.3c4,0,7.3-3.3,7.3-7.3v-96.4c0-4-3.3-7.3-7.3-7.3h-5.8v-10H125v10h-5.8
				c-4,0-7.3,3.3-7.3,7.3v160.7c0,4,3.3,7.3,7.3,7.3h5.8v10.9H73.5v-10.9h5.8c4,0,7.3-3.3,7.3-7.3v-18.6c0-4-3.3-7.3-7.3-7.3
				c-4,0-7.3,3.3-7.3,7.3v11.3h-1c-6.6,0-12,5.4-12,12v12.8c-5.5,1.1-9.6,6-9.6,11.8v14.7H23.6c-8,0-14.6,6.5-14.6,14.6v15.3
				c0,8,6.5,14.6,14.6,14.6h462.8c8,0,14.6-6.5,14.6-14.6v-15.3c0-8-6.5-14.6-14.6-14.6h-25.8v-14.7c0-5.8-4.1-10.6-9.6-11.8V426
				c0-6.6-5.4-12-12-12h-1V267.8h1c6.6,0,12-5.4,12-12V243c5.5-1.1,9.6-6,9.6-11.8v-22v-25.1h36.7c6.1,0,11.4-3.9,13.1-9.8
				C512.2,168.4,509.9,162.3,504.7,159z M252.2,59.7c1.7-1.1,3.9-1.1,5.5,0l170.8,109.9H81.4L252.2,59.7z M63.9,184.1h382.2v17.8
				h-77.9h-70.6h-85.2h-70.6H63.9V184.1z M295.3,438.8V426c0-6.6-5.4-12-12-12h-1V267.8h1c6.6,0,12-5.4,12-12V243
				c5.5-1.1,9.6-6,9.6-11.8v-14.7h56v14.7c0,5.8,4.1,10.6,9.6,11.8v12.8c0,6.6,5.4,12,12,12h1V414h-1c-6.6,0-12,5.4-12,12v12.8
				c-5.5,1.1-9.6,6-9.6,11.8v14.7h-56v-14.7C304.9,444.8,300.8,439.9,295.3,438.8z M139.5,438.8V426c0-6.6-5.4-12-12-12h-1V267.8h1
				c6.6,0,12-5.4,12-12V243c5.5-1.1,9.6-6,9.6-11.8v-14.7h56v14.7c0,5.8,4.1,10.6,9.6,11.8v12.8c0,6.6,5.4,12,12,12h1V414h-1
				c-6.6,0-12,5.4-12,12v12.8c-5.5,1.1-9.6,6-9.6,11.8v14.7h-56v-14.7C149.1,444.8,145,439.9,139.5,438.8z M275,428.5h5.8v10.9
				h-51.5v-10.9h5.8c4,0,7.3-3.3,7.3-7.3V260.5c0-4-3.3-7.3-7.3-7.3h-5.8v-10h51.5v10H275c-4,0-7.3,3.3-7.3,7.3v160.7
				C267.7,425.2,271,428.5,275,428.5z M222,228.7L222,228.7h-2.3v-12.2h70.6v12.2H288c0,0,0,0,0,0s0,0,0,0H222z M219.7,453.6
				c0.7,0.2,1.5,0.4,2.3,0.4H288c0.8,0,1.6-0.1,2.3-0.4v11.7h-70.6V453.6z M66.2,228.7h-2.3v-12.2h70.6v12.2h0h-2.3H66.2z
				 M63.9,453.6c0.7,0.2,1.5,0.4,2.3,0.4h66.1c0.8,0,1.6-0.1,2.3-0.4v11.7H63.9L63.9,453.6L63.9,453.6z M486.4,479.8l0,15.3
				c0,0,0,0,0,0l-462.8,0l0-15.3L486.4,479.8z M443.8,454c0.8,0,1.6-0.1,2.3-0.4v11.7h-70.6v-11.7c0.7,0.2,1.5,0.4,2.3,0.4H443.8z
				 M390.8,253.3H385v-10h51.5v10h-5.8c-4,0-7.3,3.3-7.3,7.3v160.7c0,4,3.3,7.3,7.3,7.3h5.8v10.9H385v-10.9h5.8c4,0,7.3-3.3,7.3-7.3
				V260.5C398,256.5,394.8,253.3,390.8,253.3z M446.1,228.7L446.1,228.7h-2.3c0,0,0,0,0,0s0,0,0,0h-66h0h-2.3v-12.2h70.6
				L446.1,228.7L446.1,228.7z"/>
		</g>
	</g>
	<g>
		<g>
			<path d="M258.1,112.5V89.8c7.8,0.6,10.7,4.1,13.4,4.1c3.4,0,4.9-4.3,4.9-6.4c0-5.5-10.7-7.8-18.3-8.1v-3c0-1.3-1.7-2.6-3.4-2.6
				c-1.9,0-3.2,1.2-3.2,2.6v3.2c-10.6,1.1-21.3,6.7-21.3,20.8c0,14.3,11.2,18.3,21.3,21.9v26.3c-11.4-0.9-14.4-8.7-18.1-8.7
				c-2.8,0-5.1,3.7-5.1,6.4c0,5.5,9.4,13,23.3,13.2l0,0v3.5c0,1.3,1.3,2.6,3.2,2.6c1.7,0,3.4-1.2,3.4-2.6v-3.8
				c12.1-1.7,20.4-9.3,20.4-23C278.4,121.1,267.8,116.1,258.1,112.5z M252.1,110.4c-5.9-2.2-10.7-4.6-10.7-11
				c0-5.8,4.5-8.6,10.7-9.4V110.4z M257.4,148.6V125c5.5,2.3,9.8,5.5,9.8,12.5C267.2,143.9,263.4,147.4,257.4,148.6z"/>
		</g>
	</g>
</g>
</svg>
