<?xml version="1.0" encoding="utf-8"?>
<!-- Generator: Adobe Illustrator 23.0.6, SVG Export Plug-In . SVG Version: 6.00 Build 0)  -->
<svg version="1.1" id="Layer_1" xmlns="http://www.w3.org/2000/svg" xmlns:xlink="http://www.w3.org/1999/xlink" x="0px" y="0px"
	 viewBox="0 0 512 512" enable-background="new 0 0 512 512" xml:space="preserve">
<g id="XMLID_1732_">
	<g id="XMLID_21_">
		<path id="XMLID_64_" d="M489.9,324.9c-5.5,0-10,4.5-10,10V393c0,5.1-4.2,9.3-9.3,9.3h-37.1c1.2-4.3,1.9-8.9,1.9-13.6v-31.9
			c3.8-5.5,6-12.2,6-19.5v-26c0-5.5-4.5-10-10-10H379c-23.3,0-42.2,18.9-42.2,42.2v18.2c0,0.4,0,0.9,0.1,1.3
			c-0.1,0.4-0.1,0.8-0.1,1.3v24.4c0,9,2.4,17.3,6.6,24.6c-0.3-0.1-0.6-0.2-0.9-0.2l-47.8-10.5c0,0,0,0-0.1,0
			c13.4-11.1,22-27.9,22-46.7v-42.1c4.9-6.8,7.8-15.1,7.8-24.2v-33.5c0-1.2-0.2-2.3-0.6-3.3V245l139.7-26.4c6-1.1,11.5-3.4,16.4-6.7
			v43c0,5.5,4.5,10,10,10s10-4.5,10-10V106.4c0-16.1-13.1-29.3-29.3-29.3H400V45.2c0-14.3-11.6-25.9-25.9-25.9h-13.3
			C356.8,8.1,346.1,0,333.5,0H178.4c-12.5,0-23.2,8.1-27.2,19.3h-13.3c-14.3,0-25.9,11.6-25.9,25.9v31.9H41.4
			c-16.1,0-29.3,13.1-29.3,29.3V393c0,16.1,13.1,29.3,29.3,29.3h48.5c0.4,0.4,0.8,0.9,1.3,1.3l-32.9,7.2
			c-18.2,4-31.5,20.5-31.5,39.1V502c0,5.5,4.5,10,10,10h104.3H215h82h73.9h104.4c5.5,0,10-4.5,10-10v-32.1
			c0-18.7-13.2-35.1-31.5-39.1l-32.9-7.2c0.4-0.4,0.9-0.9,1.3-1.4h48.5c16.1,0,29.3-13.1,29.3-29.3v-58.1
			C499.9,329.3,495.4,324.9,489.9,324.9z M356.8,371.7H407c2.9,0,5.7-0.4,8.4-1v18c0,16.1-13.1,29.3-29.3,29.3s-29.3-13.1-29.3-29.3
			L356.8,371.7L356.8,371.7z M356.8,343.5c0-12.2,10-22.2,22.2-22.2h42.4v16c0,7.9-6.5,14.4-14.4,14.4h-50.2V343.5z M285.2,420.3
			l-29.4,59.2l-29.4-59.2c3.5-1.7,6.5-4.3,8.7-7.5c6.5,2.4,13.5,3.7,20.8,3.7c7.2,0,14.2-1.3,20.6-3.6
			C278.8,416,281.8,418.6,285.2,420.3z M256,396.5c-22.4,0-40.6-18.2-40.6-40.6v-24.8h67.6c4.8,0,9.4-0.8,13.7-2.3v27.1
			C296.6,378.3,278.4,396.5,256,396.5z M303.8,236.6C303.8,236.6,303.8,236.6,303.8,236.6v9.4h-95.7v-9.4c0,0,0,0,0,0v-9.1h95.7
			V236.6z M304.4,289.7c0,11.8-9.6,21.5-21.5,21.5h-67.6v-13.5c0-17.4,14.1-31.5,31.5-31.5h57.5V289.7z M169.6,28.8
			c0-4.9,4-8.8,8.8-8.8h155.1c4.9,0,8.8,4,8.8,8.8v0.9c0,4.9-4,8.8-8.8,8.8H178.4c-4.9,0-8.8-4-8.8-8.8V28.8z M132,45.2
			c0-3.3,2.6-5.9,5.9-5.9h13.3c3.9,11.2,14.6,19.3,27.2,19.3h155.1c12.5,0,23.2-8.1,27.2-19.3h13.3c3.3,0,5.9,2.6,5.9,5.9v31.9H132
			V45.2z M41.4,97.1h429.2c5.1,0,9.3,4.2,9.3,9.3v68.3c0,11.8-8.4,22-20.1,24.2l-136,25.7v-7.2c0-5.5-4.5-10-10-10H198.1
			c-5.5,0-10,4.5-10,10v7.2L52.2,198.9c-11.6-2.2-20.1-12.4-20.1-24.2v-37.6h91.5c5.5,0,10-4.5,10-10s-4.5-10-10-10H32.1v-10.7
			C32.1,101.3,36.3,97.1,41.4,97.1z M41.4,402.3c-5.1,0-9.3-4.2-9.3-9.3V211.9c4.8,3.2,10.4,5.5,16.4,6.7L188.1,245v11
			c0,5.5,4.5,10,10,10h8.1c-6.8,8.7-10.9,19.7-10.9,31.7v23.5c0,0.6,0.1,1.1,0.1,1.7c-0.1,0.5-0.1,1.1-0.1,1.7v31.5
			c0,18.7,8.5,35.5,21.9,46.6c-0.1,0-0.2,0.1-0.3,0.1L169.4,413c-0.3,0.1-0.6,0.1-0.8,0.2c4.2-7.2,6.6-15.6,6.6-24.6v-31.9
			c3.8-5.5,6-12.2,6-19.5v-26c0-5.5-4.5-10-10-10h-52.4c-23.3,0-42.2,18.9-42.2,42.2v18.2c0,0.4,0,0.9,0.1,1.3
			c-0.1,0.4-0.1,0.8-0.1,1.3v24.4c0,4.7,0.7,9.3,1.9,13.6L41.4,402.3L41.4,402.3z M96.6,388.7v-17h50.2c2.9,0,5.7-0.4,8.4-1v18
			c0,16.1-13.1,29.3-29.3,29.3S96.6,404.8,96.6,388.7z M161.2,337.3c0,7.9-6.5,14.4-14.4,14.4H96.6v-8.2c0-12.2,10-22.2,22.2-22.2
			h42.4L161.2,337.3L161.2,337.3z M46.8,469.9c0-9.4,6.6-17.6,15.8-19.6l36.9-8.1c4.4-1,8.3-3.4,11.1-6.8c4.8,1.6,10,2.5,15.4,2.5
			c4,0,7.9-0.5,11.7-1.4c-4.1,7.2-6.5,15.5-6.5,24.1V492H46.8V469.9z M151.1,492v-31.4c0-13.4,9.5-25.2,22.6-28.1l32.9-7.2
			l33.1,66.7H215H151.1z M297,492h-25l33.1-66.7l33.2,7.3c13.1,2.9,22.6,14.7,22.6,28.1V492H297z M412.3,442.2l37.1,8.1
			c9.1,2,15.8,10.2,15.8,19.6V492h-84.4v-31.3c0-8.7-2.4-17-6.5-24.1c3.8,0.9,7.7,1.4,11.7,1.4c5.3,0,10.4-0.9,15.2-2.4
			C404.1,438.8,407.9,441.3,412.3,442.2z"/>
		<path id="XMLID_101_" d="M163.6,137.1c2.6,0,5.2-1.1,7.1-2.9c1.9-1.9,2.9-4.4,2.9-7.1c0-2.6-1.1-5.2-2.9-7.1
			c-1.9-1.9-4.4-2.9-7.1-2.9c-2.6,0-5.2,1.1-7.1,2.9c-1.9,1.9-2.9,4.4-2.9,7.1c0,2.6,1.1,5.2,2.9,7.1
			C158.4,136,161,137.1,163.6,137.1z"/>
		<path id="XMLID_102_" d="M489.9,284.9c-2.6,0-5.2,1.1-7.1,2.9c-1.9,1.9-2.9,4.4-2.9,7.1c0,2.6,1.1,5.2,2.9,7.1
			c1.9,1.9,4.4,2.9,7.1,2.9c2.6,0,5.2-1.1,7.1-2.9c1.9-1.9,2.9-4.4,2.9-7.1c0-2.6-1.1-5.2-2.9-7.1
			C495.1,285.9,492.5,284.9,489.9,284.9z"/>
	</g>
</g>
</svg>
