<?xml version="1.0" encoding="utf-8"?>
<!-- Generator: Adobe Illustrator 23.0.6, SVG Export Plug-In . SVG Version: 6.00 Build 0)  -->
<svg version="1.1" id="Layer_1" xmlns="http://www.w3.org/2000/svg" xmlns:xlink="http://www.w3.org/1999/xlink" x="0px" y="0px"
	 viewBox="0 0 512 512" enable-background="new 0 0 512 512" xml:space="preserve">
<g>
	<path d="M461.8,13.3H50.2C28.6,13.3,10.6,31.2,9,54.5v214.1c0,4.5,3.7,8.2,8.2,8.2c4.5,0,8.2-3.7,8.2-8.2l0-213.5
		c0.8-12.4,10.3-25.3,24.7-25.3h411.7c13.6,0,24.7,11.1,24.7,24.7v296.4c0,14.1-10.6,24.7-24.7,24.7H50.2
		c-14.1,0-24.7-10.6-24.7-24.7v-41.1h445V293H9.1v7.5c0,0.3-0.1,0.6-0.1,1v49.4c0,23.1,18.1,41.2,41.2,41.2h411.7
		c23.1,0,41.2-18.1,41.2-41.2V54.5C503,31.8,484.5,13.3,461.8,13.3z"/>
	<path d="M330.1,449.3h-24.7v-41.2c0-4.5-3.7-8.2-8.2-8.2c-4.6,0-8.2,3.7-8.2,8.2v49.4c0,4.5,3.7,8.2,8.2,8.2h32.9
		c9.2,0,18.9,7.5,22.8,16.5H159.1c4-8.9,13.6-16.5,22.8-16.5h82.3c4.6,0,8.2-3.7,8.2-8.2s-3.7-8.2-8.2-8.2h-41.2v-41.2
		c0-4.5-3.7-8.2-8.2-8.2s-8.2,3.7-8.2,8.2v41.2h-24.7c-21.2,0-41.2,20-41.2,41.2c0,4.5,3.7,8.2,8.2,8.2H363c4.6,0,8.2-3.7,8.2-8.2
		C371.3,469.3,351.3,449.3,330.1,449.3z"/>
	<path d="M239.5,342.7c0,9.1,7.4,16.5,16.5,16.5c9.1,0,16.5-7.4,16.5-16.5c0-9.1-7.4-16.5-16.5-16.5
		C246.9,326.2,239.5,333.6,239.5,342.7z"/>
	<polygon points="128,119.2 157,234.9 176.3,234.9 176.3,105.6 162.7,105.6 162.7,201.8 138.6,105.6 112.1,105.6 112.1,235.3 
		125.7,235.3 125.7,119.2 	"/>
	<polygon points="256.7,105.2 256.7,234.9 291.4,234.9 298.6,148.1 300.6,148.1 307.8,234.9 342.5,234.9 342.5,105.2 329,105.2 
		329,221.3 320.3,221.3 313.1,134.5 286.1,134.5 278.9,221.3 270.2,221.3 270.2,105.2 	"/>
	<polygon points="241.8,119.2 241.8,105.6 191.6,105.6 191.6,234.9 241.8,234.9 241.8,221.3 205.2,221.3 205.2,177 241.8,177 
		241.8,163.5 205.2,163.5 205.2,119.2 	"/>
	<polygon points="357.9,206.4 357.9,234.9 407.6,234.9 407.6,172.9 371.5,158.4 371.5,119.2 394,119.2 394,134.1 407.6,134.1 
		407.6,105.6 357.9,105.6 357.9,167.6 394,182.1 394,221.3 371.5,221.3 371.5,206.4 	"/>
	<ellipse transform="matrix(0.7071 -0.7071 0.7071 0.7071 -107.5872 95.0991)" cx="61" cy="177.4" rx="7.1" ry="7.1"/>
	<ellipse transform="matrix(0.7071 -0.7071 0.7071 0.7071 -127.9947 103.5521)" cx="61" cy="206.3" rx="7.1" ry="7.1"/>
	<ellipse transform="matrix(0.7071 -0.7071 0.7071 0.7071 -148.4021 112.0052)" cx="61" cy="235.1" rx="7.1" ry="7.1"/>
	<path d="M451.6,271.2c3.9,0,7.1-3.2,7.1-7.1c0-3.9-3.2-7.1-7.1-7.1c-3.9,0-7.1,3.2-7.1,7.1C444.5,268,447.7,271.2,451.6,271.2z"/>
	<ellipse transform="matrix(0.9871 -0.1602 0.1602 0.9871 -36.8474 71.1219)" cx="422.7" cy="264.1" rx="7.1" ry="7.1"/>
	<path d="M451.6,242.3c3.9,0,7.1-3.2,7.1-7.1c0-3.9-3.2-7.1-7.1-7.1c-3.9,0-7.1,3.2-7.1,7.1C444.5,239.1,447.7,242.3,451.6,242.3z"
		/>
	<path d="M62.2,162.3c4,0,7.2-3.2,7.2-7.2V74h21.8c4,0,7.2-3.2,7.2-7.2s-3.2-7.2-7.2-7.2H62.2c-4,0-7.2,3.2-7.2,7.2v88.3
		C55,159,58.2,162.3,62.2,162.3z"/>
</g>
</svg>
