<?xml version="1.0" encoding="utf-8"?>
<!-- Generator: Adobe Illustrator 23.0.6, SVG Export Plug-In . SVG Version: 6.00 Build 0)  -->
<svg version="1.1" id="Layer_1" xmlns="http://www.w3.org/2000/svg" xmlns:xlink="http://www.w3.org/1999/xlink" x="0px" y="0px"
	 viewBox="0 0 511 511" enable-background="new 0 0 511 511" xml:space="preserve">
<g>
	<path d="M462.1,119.3h-76.6V99.1c0-5.6-4.5-10.1-10.1-10.1h-4v-8c0-36.7-29.8-66.5-66.5-66.5H204.1c-36.7,0-66.5,29.8-66.5,66.5
		v8.1h-4.1c-5.6,0-10.1,4.5-10.1,10.1v20.2H115c-0.6-0.1-1.2-0.2-1.9-0.2H49.9c-13.4,0.1-26.9,5.4-37,14.8
		c-10.5,9.7-16.4,22.4-16.4,35.7v66.5c0,15.8,7.5,30.8,20.2,40.3v171.4c0,27.8,22.6,50.4,50.4,50.4h263.8c5.6,0,10.1-4.5,10.1-10.1
		s-4.5-10.1-10.1-10.1H67c-16.7,0-30.3-13.6-30.3-30.3V285.6c0.2,0,0.4,0.1,0.5,0.1l175,32.4v77.3c0,4.4,2.8,8.3,7.1,9.6l32.4,10.1
		c0.9,0.3,1.9,0.4,3,0.4c1,0,1.9-0.1,2.9-0.4l32.4-10.1c4.2-1.3,7.1-5.2,7.1-9.6v-77.3l174.9-32.4c0.1,0,0.3-0.1,0.5-0.1v162.3
		c0,16.7-13.6,30.3-30.3,30.3h-42.8c-5.6,0-10.1,4.5-10.1,10.1s4.5,10.1,10.1,10.1H442c27.8,0,50.4-22.6,50.4-50.4V276.5
		c12.7-9.6,20.2-24.5,20.2-40.3v-66.5C512.5,141.9,489.8,119.3,462.1,119.3z M276.7,364.1V388l-22.2,6.9l-22.2-6.9v-23.9H276.7z
		 M276.7,319.7v24.2h-44.4v-24.2H276.7z M351.3,89.1h-12.1V81c0-18.9-15.4-34.2-34.3-34.2h-16.8c-5.6,0-10.1,4.5-10.1,10.1
		S282.5,67,288.1,67h16.8c7.8,0,14.1,6.3,14.1,14.1v8.1h-4c-5.6,0-10.1,4.5-10.1,10.1v20.2H204.1V99.1c0-5.6-4.5-10.1-10.1-10.1h-4
		v-8c0-7.8,6.3-14.1,14.1-14.1H253c5.6,0,10.1-4.5,10.1-10.1c0-5.6-4.5-10.1-10.1-10.1h-48.9c-18.9,0-34.3,15.3-34.3,34.2V89h-12.1
		v-8c0-25.6,20.8-46.4,46.4-46.4h100.8c25.6,0,46.4,20.8,46.4,46.4V89.1z M325,119.3v-10.1h40.4v10.1H325z M143.6,119.3v-10.1H184
		v10.1H143.6z M16.6,195.4h75.2c5.8,0,10.4-4.7,10.4-10.4c0-5.8-4.7-10.4-10.4-10.4H16.6v-4.8c0-15.9,15.9-30.3,33.3-30.3h45.2
		c0.7,0.1,1.3,0.2,2,0.2h365c16.7,0,30.3,13.6,30.3,30.3v66.5c0,14.4-10.3,26.9-24.4,29.6l-182.3,33.8h-62.6l-182.1-34
		c-14.2-2.8-24.5-15.2-24.5-29.6V195.4z"/>
	<path d="M365.5,478.2c-5.6,0-10.1,4.5-10.1,10.1s4.5,10.1,10.1,10.1s10.1-4.5,10.1-10.1S371.1,478.2,365.5,478.2z"/>
	<path d="M123.7,195.3c5.7,0,10.4-4.7,10.4-10.4s-4.7-10.4-10.4-10.4c-5.7,0-10.4,4.7-10.4,10.4S118,195.3,123.7,195.3z"/>
</g>
</svg>
