<?xml version="1.0" encoding="utf-8"?>
<!-- Generator: Adobe Illustrator 23.0.6, SVG Export Plug-In . SVG Version: 6.00 Build 0)  -->
<svg version="1.1" id="Layer_1" xmlns="http://www.w3.org/2000/svg" xmlns:xlink="http://www.w3.org/1999/xlink" x="0px" y="0px"
	 viewBox="0 0 512 512" enable-background="new 0 0 512 512" xml:space="preserve">
<g>
	<path d="M419.6,72.4L404.1,88"/>
	<path d="M96.9,88L81.3,72.4"/>
	<path d="M441.7,368.4l-15.6-15.6"/>
	<path d="M74.9,352.8l-15.6,15.6"/>
	<path d="M256,42.2c5.6,0,10.1-4.5,10.1-10.1v-22C266.1,4.5,261.6,0,256,0s-10.1,4.5-10.1,10.1v22C245.9,37.7,250.4,42.2,256,42.2z"
		/>
	<path d="M487.4,203.9h-22c-5.6,0-10.1,4.5-10.1,10.1c0,5.6,4.5,10.1,10.1,10.1h22c5.6,0,10.1-4.5,10.1-10.1
		C497.5,208.4,493,203.9,487.4,203.9z"/>
	<path d="M56.7,214c0-5.6-4.5-10.1-10.1-10.1h-22c-5.6,0-10.1,4.5-10.1,10.1c0,5.6,4.5,10.1,10.1,10.1h22
		C52.2,224.1,56.7,219.6,56.7,214z"/>
	<path d="M404.1,98.1c2.6,0,5.2-1,7.1-3l15.6-15.6c3.9-3.9,3.9-10.3,0-14.3s-10.3-3.9-14.3,0l-15.6,15.6c-3.9,3.9-3.9,10.3,0,14.3
		C398.9,97.1,401.5,98.1,404.1,98.1z"/>
	<path d="M104.1,80.8L88.5,65.2c-3.9-3.9-10.3-3.9-14.3,0c-3.9,3.9-3.9,10.3,0,14.3l15.6,15.6c2,2,4.6,3,7.1,3c2.6,0,5.2-1,7.1-3
		C108,91.2,108,84.8,104.1,80.8z"/>
	<path d="M433.2,345.7c-3.9-3.9-10.3-3.9-14.3,0S415,356,419,360l15.6,15.6c2,2,4.6,3,7.1,3s5.2-1,7.1-3c3.9-3.9,3.9-10.3,0-14.3
		L433.2,345.7z"/>
	<path d="M67.7,345.7l-15.6,15.6c-3.9,3.9-3.9,10.3,0,14.3c2,2,4.6,3,7.1,3s5.2-1,7.1-3L82,360c3.9-3.9,3.9-10.3,0-14.3
		S71.7,341.7,67.7,345.7z"/>
	<path d="M256,83.4c-31.6,0-62,9.3-88.1,26.8c-4.6,3.1-5.9,9.4-2.7,14c3.1,4.6,9.4,5.9,14,2.8c22.8-15.3,49.3-23.4,76.9-23.4
		c76.1,0,138,61.9,138,138c0,72.3-55.9,131.8-126.8,137.5v-63.1c0-0.5,0-1.3,0-2.4v-23c26.2-0.2,48-8,64.9-23.1
		c31.2-28,33.5-70.8,33.6-72.6c0.1-3-1-5.8-3.2-7.9c-2.2-2-5.1-3-8.1-2.6c-57.1,6.7-83.3,32.1-95.2,52.3c-6.6,11.2-9.7,22.1-11,30.2
		c-1.6-1.7-3.2-3.4-5.1-5.1c-16.9-15.6-53.9-24.5-58.1-25.5c-0.1,0-0.1,0-0.2-0.1c-1.3-0.3-1.9-0.4-2.3-0.5
		c-1.6-0.4-2.3-0.5-5.6-0.9c-2.9-0.3-5.9,0.6-8.1,2.6c-2.2,2-3.3,4.9-3.2,7.9c0.1,1.5,2,37.6,28.4,61.3c13.9,12.4,31.7,19,53,19.5
		v53.2C175.1,374.5,118,314.6,118,241.5c0-21.8,4.9-42.6,14.7-61.9c2.5-5,0.5-11.1-4.5-13.6c-5-2.5-11.1-0.5-13.6,4.5
		c-11.2,22.2-16.8,46.1-16.8,71c0,56.4,29.7,106,74.3,134v60.3c0,42,34.2,76.2,76.2,76.2H262c42,0,76.2-34.2,76.2-76.2v-59.2
		c45.5-27.8,76-78,76-135.1C414.2,154.3,343.2,83.4,256,83.4z M276.5,246.9c12.3-20.8,34.8-34.4,67-40.5
		c-2.8,12.6-9.4,32.1-25.1,46.1c-12.8,11.4-29.8,17.4-50.4,17.8C269,264.2,271.3,255.7,276.5,246.9z M207.5,291.6
		c-11.3-10-16.7-23.6-19.4-33.6c12.6,3.6,32.3,10.5,41.2,18.6c10.9,10.1,15.1,21.4,16.7,29.2C230.3,305.1,217.4,300.4,207.5,291.6z
		 M317.9,428.2h-63.7c-5.6,0-10.1,4.5-10.1,10.1s4.5,10.1,10.1,10.1h62.3c-5.7,24.8-28,43.4-54.5,43.4h-13.7c-30.9,0-56-25.1-56-56
		v-49.5c19.5,8.6,41,13.4,63.7,13.4c22,0,42.9-4.5,61.9-12.6V428.2z"/>
	<path d="M219.7,430.4l-0.3-0.2c-4.7-3-10.9-1.7-14,3s-1.7,10.9,3,14l0.3,0.2c1.7,1.1,3.6,1.6,5.5,1.6c3.3,0,6.5-1.6,8.5-4.6
		C225.7,439.7,224.3,433.4,219.7,430.4z"/>
	<path d="M139.8,152.3l0.3,0.2c1.7,1.1,3.6,1.6,5.5,1.6c3.3,0,6.6-1.6,8.5-4.6c3-4.7,1.7-10.9-3-14l-0.3-0.2c-4.7-3-10.9-1.7-14,3
		S135.1,149.3,139.8,152.3z"/>
</g>
</svg>
