<svg xmlns="http://www.w3.org/2000/svg" xmlns:xlink="http://www.w3.org/1999/xlink" version="1.1" x="0px" y="0px" viewBox="0 0 66 82.5" enable-background="new 0 0 66 66" xml:space="preserve"><g><path d="M1.1464844,51.1235352c0.1953125,0.1953125,0.5117188,0.1953125,0.7070313,0l7.5493164-7.5493164l0.6640015,0.6640015   l0.000061,0.000061l11.5332031,11.5332031c0.0004272,0.0004272,0.0009766,0.0004883,0.0009766,0.0004883l0.6630859,0.6630859   l-7.5493164,7.5493164c-0.1953125,0.1953125-0.1953125,0.5117188,0,0.7070313   c0.0976563,0.0976563,0.2255859,0.1464844,0.3535156,0.1464844s0.2558594-0.0488281,0.3535156-0.1464844l7.902832-7.902832   c0.09375-0.09375,0.1464844-0.2207031,0.1464844-0.3535156S23.418457,56.175293,23.324707,56.081543l-0.6638794-0.6638184   l2.0271606-2.0275879c0.0257568-0.0257568,0.0390015-0.0578613,0.0579834-0.0872803   c0.6184692,0.213623,1.2608643,0.3411865,1.9083252,0.3411865c1.4936523,0,2.987793-0.5683594,4.125-1.7055664l4.8800049-4.8804932   c3.8485718,2.8792114,7.9493408,5.4333496,12.3157959,7.6036377c1.6469727,0.8212891,3.4399414,1.2338867,5.2412109,1.2333984   c1.6049805,0,3.2163086-0.3271484,4.7368164-0.9838867c3.3105469-1.4311523,5.8051758-4.2314453,6.8168945-7.6118164   c0.0205078-0.0429688,0.0375977-0.0908203,0.0795898-0.215332c0.5415039-1.8291016-0.4267578-3.7514648-2.2045898-4.3759766   c-3.4360352-1.2036133-6.8144531-2.7333984-10.0400391-4.5449219c-1.6342773-0.9296875-3.7143555-0.3935547-4.7324219,1.2202148   l-0.9658203,1.5415039c-0.7686539,1.2457848-2.4236641,1.5982285-3.6386719,0.7568359   c-0.2828369-0.1945801-0.5618896-0.3946533-0.84198-0.5933228l0.6906128-0.6908569   c1.1793442-1.1793442,1.1753082-3.0835152,0-4.2578125c-0.5745239-0.5750122-1.3654785-0.8572388-2.1541748-0.8509521   c0.7216377-1.2465134,0.4550858-2.7043991-0.4693604-3.6280518c-0.5784302-0.5784302-1.3359375-0.8688354-2.0957642-0.8771973   c0.7088623-1.1594238,0.5700073-2.6949463-0.4320679-3.6970215c-1.0015259-1.0015259-2.5361938-1.140625-3.6951904-0.4331055   c-0.0080566-0.7607422-0.2988281-1.519165-0.8780518-2.0981445c-1.1748047-1.1748047-3.0854492-1.1738281-4.2602539,0   l-1.9163208,1.916626c-0.1612549-0.2090454-0.3236694-0.416626-0.4830933-0.62854   c-0.8874054-1.1697617-0.6175785-2.839922,0.6040039-3.668457l1.4951172-1.0292969   c1.5683594-1.0864258,2.0141602-3.1860352,1.0161133-4.7788086c-1.9511719-3.1479492-3.625-6.4575195-4.9741211-9.8369141   c-0.7932606-1.9790039-3.2378464-2.6870484-4.609375-1.9555664c-3.4038086,1.1875-6.0942383,3.8012695-7.3808594,7.1704102   c-1.2539063,3.2836914-1.0063477,6.9130859,0.6791992,9.9570313c1.585144,2.8710327,3.3688354,5.6661987,5.2973633,8.3226929   c-1.1593018,1.0983276-2.34198,2.119812-3.5761719,3.0459595l-1.3837891,1.3837891   c-1.8007813,1.8007813-2.2687378,4.4330444-1.4130249,6.6708374c-0.0120239,0.0097656-0.0275269,0.013855-0.0386353,0.0249634   l-2.027832,2.027832l-0.6640625-0.6640625c-0.1953125-0.1953125-0.5117188-0.1953125-0.7070313,0l-7.902832,7.902832   C0.9511719,50.6118164,0.9511719,50.9282227,1.1464844,51.1235352z M52.1132813,39.0336914   c3.2783203,1.8413086,6.7104492,3.3950195,10.2006836,4.6176758c1.2739258,0.4477539,1.9667969,1.8310547,1.6030273,3.0791016   c-0.019043,0.0410156-0.0351563,0.0869141-0.0771484,0.2094727c-0.0480957,0.15979-0.1142578,0.3109131-0.1690674,0.4675903   c-5.3264771-1.8451538-10.4465332-4.2128296-15.2380371-7.0350342l0.2860107-0.4564819   C49.4516602,38.7563477,50.9399414,38.3681641,52.1132813,39.0336914z M47.7553711,41.4536133l0.1460571-0.2331543   c4.8432617,2.8554077,10.0188599,5.2490234,15.4020996,7.1173096c-1.1419678,2.519104-3.1705933,4.5418701-5.7473755,5.6553955   c-2.9555664,1.2763672-6.2861328,1.1938477-9.1352539-0.2265625c-9.796875-4.8695679-18.3162842-11.5932617-25.3438721-19.9732666   l2.1612549-2.1610107c0.1276855,0.2235107,0.2801514,0.4300537,0.4633789,0.6132813   c0.5792847,0.5792847,1.3377686,0.869873,2.0985107,0.8778076c-0.7080078,1.1589355-0.5689697,2.6937256,0.4327393,3.6954346   c0.9627991,0.9627991,2.4742813,1.1794434,3.6970215,0.4320679c0.0083618,0.7598267,0.2987671,1.517334,0.8771973,2.0957642   c1.0339394,1.0348282,2.7043991,1.2142448,3.956543,0.2481079c0.0249023,0.7365112,0.3096924,1.4661255,0.8706055,2.0272827   c1.0663033,1.0654182,2.8019485,1.2143822,4.0523682,0.1680908c0.3366089,0.2402954,0.6733398,0.4805298,1.0135498,0.7147217   C44.3854065,43.6725807,46.6896095,43.1804276,47.7553711,41.4536133z M42.409668,36.8466797   c0.7832031,0.7832031,0.7892609,2.0544891,0,2.84375l-1.2241211,1.2246094c-0.7841797,0.7841797-2.0600586,0.7841797-2.8442383,0   c-0.7836914-0.7841797-0.7836914-2.0600586,0-2.8442383l1.2246094-1.2241211   C40.3491211,36.0634766,41.6204071,36.0574188,42.409668,36.8466797z M39.7861328,35.2119141l-3.4277344,3.4277344   c-0.7597656,0.7597656-2.0844727,0.7597656-2.8442383,0c-0.7841797-0.7841797-0.7841797-2.0595703,0-2.84375l3.4282227-3.4282227   c0.7835999-0.7835999,2.0595779-0.7841721,2.84375,0C40.5677223,33.1492653,40.5768623,34.4211845,39.7861328,35.2119141z    M37.2583008,27.793457c0.7836914,0.7841797,0.7836914,2.0600586,0,2.8442383   c-0.1522636,0.1522636-4.7030869,4.7030869-4.4511719,4.4511719l-1.0229492,1.0229492   c-0.7841797,0.7841797-2.0600586,0.7841797-2.8442383,0s-0.7841797-2.0595703,0-2.84375l5.4741211-5.4746094   C35.1976089,27.0099125,36.4740868,27.0092449,37.2583008,27.793457z M29.8388672,25.262207   c0.7841797-0.7841797,2.0610352-0.7851563,2.8461914,0c0.784668,0.784668,0.784668,2.0615234,0,2.8461914l-3.4301758,3.4301758   c-0.7851563,0.7832031-2.0610352,0.7841797-2.8461914,0c-0.2011719-0.2011719-0.3530273-0.4438477-0.453125-0.7231445   c0.4844379-0.7053738,0.76577-1.6569748,0.7753906-2.4448242L29.8388672,25.262207z M20.5932617,5.5185547   c1.5610905-0.5646496,2.8876247,0.2236471,3.3515625,1.3828125c1.3706055,3.4326172,3.0708008,6.7949219,5.0541992,9.9946289   c0.7148438,1.140625,0.3911133,2.6459961-0.7363281,3.4272461l-0.3473511,0.2391357   c-3.2089233-4.6467285-5.9431152-9.5910034-8.1384277-14.7080078C20.0457153,5.7362671,20.3135376,5.6160889,20.5932617,5.5185547z    M13.8173828,12.1015625c0.9550171-2.5004883,2.7601929-4.5334473,5.0639038-5.802002   c2.2174683,5.1594849,4.9752197,10.1444092,8.2108154,14.8296509l-0.3201294,0.2203979   c-1.1915359,0.8074226-1.7934036,2.2460041-1.4725342,3.7091064c-0.6570015-0.5178566-1.5553551-0.388279-2.0557861,0.2269287   c-1.2011719,1.477478-2.4133911,2.8112183-3.6531982,4.0410767c-1.8735352-2.5910034-3.6091919-5.3128052-5.1529541-8.1089478   C12.8950195,18.4316406,12.6689453,15.1088867,13.8173828,12.1015625z M14.6069336,35.1611328l1.3295898-1.3369141   c2.8393555-2.1240234,5.4833984-4.7104492,8.0830078-7.9077148c0.0893555-0.109375,0.2143555-0.1738281,0.3525391-0.1806641   c0.1401367-0.0083008,0.2573242,0.0415039,0.3505859,0.1347656c1.3584728,1.3589745,1.306488,3.5562592,0.0004883,4.862793   c-0.1005421,0.099472-2.9001598,2.8995209-3.8666992,3.8662109c-0.1953125,0.1953125-0.1953125,0.5117188,0,0.7070313   s0.5117188,0.1953125,0.7070313,0l0.8051147-0.8050537c3.7501831,4.4620972,7.9259033,8.4491577,12.4829712,11.9501343   l-4.7792969,4.7797241c-1.8846436,1.8846436-4.9508667,1.883667-6.8356323,0.0002441l-8.6315918-8.631958   C12.5559692,40.5483398,12.5563965,37.2116699,14.6069336,35.1611328z M12.8017578,42.2104492l1.0940552,1.0940552   c0.0014648,0.0014648,0.0026245,0.0031128,0.0040894,0.0045776l8.6293945,8.6293945   c0.000061,0.000061,0.0001831,0.0001831,0.0001831,0.0001831l1.0979614,1.0979614l-1.673584,1.6740723l-10.826416-10.8259277   L12.8017578,42.2104492z"/><path d="M44.3613281,49.652832c0.8393555,0.4926758,1.6845703,0.9765625,2.5415039,1.4448242   c0.0761719,0.0415039,0.1582031,0.0610352,0.2392578,0.0610352c0.1767578,0,0.3486328-0.0942383,0.4394531-0.2602539   c0.1323242-0.2421875,0.0429688-0.5458984-0.1992188-0.6787109c-0.8481445-0.4633789-1.6845703-0.9414063-2.5151367-1.4291992   c-0.2373047-0.140625-0.5439453-0.0600586-0.684082,0.1782227C44.043457,49.206543,44.1230469,49.5131836,44.3613281,49.652832z"/><path d="M49.7060547,52.5273438c1.1162109,0.4672852,2.2973633,0.7041016,3.5112305,0.7041016   c1.265625,0,2.5029297-0.2573242,3.6777344-0.7646484c0.253418-0.109375,0.3701172-0.4038086,0.2607422-0.6572266   c-0.109375-0.2539063-0.4042969-0.3706055-0.6572266-0.2607422c-2.0532227,0.887207-4.3754883,0.90625-6.4067383,0.0556641   c-0.2543945-0.1074219-0.5473633,0.0131836-0.6542969,0.2685547   C49.3310547,52.1274414,49.4511719,52.4204102,49.7060547,52.5273438z"/><path d="M19.0244141,57.6977539c0.6962891-0.6962891,0.6962891-1.8286133,0-2.5249023   c-0.6967773-0.6962891-1.8291016-0.6962891-2.5249023,0c-0.6962891,0.6962891-0.6962891,1.8286133,0,2.5249023   c0.3481445,0.3481445,0.8051758,0.5219727,1.2626953,0.5219727C18.2192383,58.2197266,18.6762695,58.0458984,19.0244141,57.6977539   z M17.206543,56.9907227c-0.3061523-0.3061523-0.3061523-0.8046875,0-1.1108398   c0.1533203-0.1533203,0.3544922-0.2294922,0.5551758-0.2294922c0.2011719,0,0.4023438,0.0761719,0.5556641,0.2294922   c0.1484375,0.1484375,0.2299805,0.3457031,0.2299805,0.5556641c0,0.2094727-0.081543,0.4067383-0.2299805,0.5551758   C18.0205078,57.2885742,17.503418,57.2875977,17.206543,56.9907227z"/><path d="M64.5,1.1621094H33.0957031c-0.2412415,0-0.5,0.2201654-0.5,0.5v19.2783203c0,0.2707558,0.248497,0.5,0.5,0.5H64.5   c0.2588272,0,0.5-0.2469044,0.5-0.5V1.6621094C65,1.3781066,64.736145,1.1621094,64.5,1.1621094z M62.9272461,2.1621094   L49.4985352,11.659668c-0.4189453,0.296875-0.9819336,0.296875-1.4018555,0L34.668457,2.1621094H62.9272461z    M34.6689453,20.4404297l6.8393555-4.8354492c0.2255859-0.1591797,0.2792969-0.4711914,0.1196289-0.6967773   c-0.1586914-0.2246094-0.4711914-0.2788086-0.6967773-0.1196289l-7.3354492,5.1861572V2.6280518l12.2651367,8.6751709   l-2.5244141,1.784668c-0.2255859,0.1591797-0.2792969,0.4711914-0.1196289,0.6967773   c0.1586914,0.2250977,0.4716797,0.2792969,0.6967773,0.1196289l2.8125-1.9882813l0.7939453,0.5610352   c0.765625,0.5410156,1.7929688,0.5400391,2.5556641,0l0.7944336-0.5610352l2.8125,1.9882813   c0.2245369,0.1593094,0.5375137,0.1060619,0.6967773-0.1196289c0.159668-0.2255859,0.105957-0.5375977-0.1196289-0.6967773   l-2.5248413-1.7850342L64,2.6280518v17.3466187l-7.3349609-5.1860962   c-0.2255859-0.1591797-0.5380859-0.1049805-0.6967773,0.1196289c-0.159668,0.2255859-0.105957,0.5375977,0.1196289,0.6967773   l6.8388672,4.8354492H34.6689453z"/></g></svg>